<svg width="170" height="150" viewBox="0 0 170 150" xmlns="http://www.w3.org/2000/svg">
<style type="text/css">
.st0{fill:#FFCE00;}
.st1{fill:#DD0000;}
</style>
<polygon points="64.2,0 8.2,0 82.1,73.9 82.1,73.9 82.1,73.9 88.8,67.3 82.2,49"/>
<polygon class="st0" points="100.2,0 91,25 111.7,25 88.8,67.3 156.2,0"/>
<polygon class="st1" points="91,25 82.2,49 88.8,67.3 111.7,25"/>
<path d="M3.7,94.2l7.1,21.1l7-21.1h3.8L12.6,119H9L0,94.2H3.7z"/>
<path d="M31.9,94.2h3.4V119h-3.4V94.2z"/>
<path d="M47.7,94.2H59c1.9,0,3.4,0.3,4.6,0.8c2.3,1.1,3.4,3,3.4,5.9c0,1.5-0.3,2.7-0.9,3.7s-1.5,1.7-2.6,2.3
	c1,0.4,1.7,0.9,2.2,1.6c0.5,0.6,0.8,1.7,0.8,3.1l0.1,3.3c0,0.9,0.1,1.7,0.2,2.1c0.2,0.8,0.6,1.3,1.1,1.5v0.6h-4.1
	c-0.1-0.2-0.2-0.5-0.3-0.8c-0.1-0.3-0.1-1-0.2-2l-0.2-4.1c-0.1-1.6-0.7-2.7-1.8-3.3c-0.6-0.3-1.6-0.5-2.9-0.5h-7.4V119h-3.4V94.2
	z M58.6,105.6c1.5,0,2.7-0.3,3.6-0.9c0.9-0.6,1.3-1.8,1.3-3.4c0-1.8-0.6-3-1.9-3.6c-0.7-0.3-1.6-0.5-2.7-0.5h-8v8.5H58.6z"/>
<path d="M78.9,94.2h4.8l7.1,21l7.1-21h4.8V119h-3.2v-14.7c0-0.5,0-1.3,0-2.5c0-1.2,0-2.4,0-3.8L92.5,119h-3.3L82,98.1v0.8
	c0,0.6,0,1.5,0.1,2.8c0,1.2,0.1,2.2,0.1,2.7V119h-3.2V94.2z"/>
<path d="M114.9,94.2h18v3h-14.7v7.5h13.6v2.9h-13.6v8.4h15v3h-18.3V94.2z"/>
<path d="M144,94.2h11.3c1.9,0,3.4,0.3,4.6,0.8c2.3,1.1,3.4,3,3.4,5.9c0,1.5-0.3,2.7-0.9,3.7c-0.6,0.9-1.5,1.7-2.6,2.3
	c1,0.4,1.7,0.9,2.2,1.6c0.5,0.6,0.8,1.7,0.8,3.1l0.1,3.3c0,0.9,0.1,1.7,0.2,2.1c0.2,0.8,0.6,1.3,1.1,1.5v0.6h-4.1
	c-0.1-0.2-0.2-0.5-0.3-0.8c-0.1-0.3-0.1-1-0.2-2l-0.2-4.1c-0.1-1.6-0.7-2.7-1.8-3.3c-0.6-0.3-1.6-0.5-2.9-0.5h-7.4V119H144V94.2z
	 M155,105.6c1.5,0,2.7-0.3,3.6-0.9c0.9-0.6,1.3-1.8,1.3-3.4c0-1.8-0.6-3-1.9-3.6c-0.7-0.3-1.6-0.5-2.7-0.5h-8v8.5H155z"/>
<path d="M32,131.3l-0.5,1.3c-0.5-0.3-1.2-0.5-2.2-0.5c-0.9,0-1.7,0.4-2.3,1.2c-0.6,0.8-0.9,1.9-0.9,3.1c0,1.2,0.3,2.2,0.9,3
	c0.6,0.8,1.3,1.1,2.3,1.1c1,0,1.8-0.4,2.3-1.1l0.8,1.1c-0.9,0.8-1.9,1.3-3.3,1.3c-1.4,0-2.5-0.5-3.3-1.5s-1.2-2.3-1.2-4
	c0-1.6,0.4-2.9,1.3-4s2-1.6,3.3-1.6C30.5,130.8,31.4,131,32,131.3z"/>
<path d="M42.3,141.8l-5.6-7.9v7.7h-1.4V131h0.6l5.4,7.4V131h1.4v10.9H42.3z"/>
<path d="M53,131.3l-0.5,1.3c-0.5-0.3-1.2-0.5-2.2-0.5c-0.9,0-1.7,0.4-2.3,1.2c-0.6,0.8-0.9,1.9-0.9,3.1c0,1.2,0.3,2.2,0.9,3
	c0.6,0.8,1.3,1.1,2.3,1.1c1,0,1.8-0.4,2.3-1.1l0.8,1.1c-0.9,0.8-1.9,1.3-3.3,1.3c-1.4,0-2.5-0.5-3.3-1.5s-1.2-2.3-1.2-4
	c0-1.6,0.4-2.9,1.3-4c0.9-1.1,2-1.6,3.3-1.6C51.4,130.8,52.3,131,53,131.3z"/>
<path d="M62.4,134.9h-0.9v-1.1h0.9v-1.6l1.4-0.5v2.2H66v1.1h-2.2v3.9c0,0.7,0.1,1.1,0.3,1.4c0.2,0.3,0.6,0.4,1.1,0.4
	c0.4,0,0.7-0.1,1.1-0.3l0.2,1.2c-0.6,0.1-1.2,0.2-1.9,0.2c-0.6,0-1.1-0.2-1.6-0.7c-0.4-0.5-0.6-1-0.6-1.7V134.9z"/>
<path d="M75.7,137.9h-5.7c0,0.9,0.3,1.6,0.8,2.1c0.4,0.4,1,0.6,1.7,0.6c0.8,0,1.5-0.2,2-0.7l0.6,1c-0.2,0.2-0.5,0.4-1,0.6
	c-0.6,0.2-1.2,0.3-1.9,0.3c-1,0-1.8-0.3-2.5-1c-0.8-0.7-1.2-1.7-1.2-3c0-1.3,0.4-2.3,1.2-3.1c0.7-0.7,1.5-1,2.5-1
	c1.1,0,2,0.3,2.6,0.9c0.6,0.6,0.9,1.4,0.9,2.4C75.8,137.4,75.8,137.6,75.7,137.9z M72.3,134.9c-0.6,0-1.1,0.2-1.6,0.6
	c-0.4,0.4-0.6,0.9-0.7,1.4h4.3c0-0.6-0.2-1-0.5-1.4C73.5,135.1,73,134.9,72.3,134.9z"/>
<path d="M84.4,134.5l-0.7,1c-0.1-0.1-0.4-0.3-0.8-0.4c-0.4-0.1-0.7-0.2-1.1-0.2c-0.8,0-1.4,0.3-1.8,0.8c-0.4,0.5-0.7,1.3-0.7,2.2
	c0,0.9,0.2,1.6,0.7,2.1c0.5,0.5,1.1,0.7,1.9,0.7c0.6,0,1.3-0.2,1.9-0.7l0.5,1.2c-0.7,0.5-1.7,0.7-2.8,0.7c-1.1,0-2-0.4-2.7-1.1
	c-0.7-0.7-1-1.7-1-2.9c0-1.3,0.4-2.3,1.1-3c0.7-0.8,1.7-1.1,3-1.1c0.4,0,0.8,0.1,1.3,0.3C83.8,134.1,84.2,134.3,84.4,134.5z"/>
<path d="M92,141.7v-4.9c0-0.6-0.1-1-0.4-1.4c-0.3-0.3-0.7-0.5-1.2-0.5c-0.3,0-0.7,0.1-1,0.3c-0.3,0.2-0.6,0.4-0.8,0.7v5.8h-1.4
	v-11.1h1.4v4.1c0.2-0.3,0.5-0.5,0.9-0.7c0.4-0.2,0.8-0.3,1.3-0.3c0.8,0,1.5,0.3,2,0.8c0.5,0.5,0.7,1.3,0.7,2.2v4.9H92z"/>
<path d="M101.4,141.7v-4.6c0-0.8-0.1-1.4-0.4-1.8c-0.3-0.3-0.7-0.5-1.3-0.5c-0.3,0-0.7,0.1-1,0.3c-0.3,0.2-0.6,0.4-0.8,0.7v5.8
	h-1.4v-7.9h1l0.4,1c0.5-0.8,1.2-1.2,2.3-1.2c1.7,0,2.6,1,2.6,3.1v4.9H101.4z"/>
<path d="M105.4,137.8c0-1.2,0.3-2.2,1-2.9c0.7-0.7,1.5-1.1,2.6-1.1c1.1,0,2,0.4,2.6,1.1c0.6,0.7,0.9,1.7,0.9,3c0,1.3-0.3,2.3-1,3
	s-1.5,1.1-2.6,1.1c-1.1,0-2-0.4-2.6-1.1C105.7,140,105.4,139,105.4,137.8z M106.9,137.8c0,2,0.7,3,2.1,3c0.7,0,1.2-0.3,1.5-0.8
	c0.4-0.5,0.6-1.2,0.6-2.2c0-1.9-0.7-2.9-2.1-2.9c-0.6,0-1.1,0.3-1.5,0.8C107.1,136.1,106.9,136.8,106.9,137.8z"/>
<path d="M115.3,139.5v-8.8h1.4v8.6c0,0.4,0.1,0.8,0.4,1c0.2,0.2,0.6,0.4,1,0.4v1.2C116.2,141.8,115.3,141.1,115.3,139.5z"/>
<path d="M120.3,137.8c0-1.2,0.3-2.2,1-2.9c0.7-0.7,1.5-1.1,2.6-1.1c1.1,0,2,0.4,2.6,1.1c0.6,0.7,0.9,1.7,0.9,3c0,1.3-0.3,2.3-1,3
	s-1.5,1.1-2.6,1.1c-1.1,0-2-0.4-2.6-1.1C120.6,140,120.3,139,120.3,137.8z M121.8,137.8c0,2,0.7,3,2.1,3c0.7,0,1.2-0.3,1.5-0.8
	c0.4-0.5,0.6-1.2,0.6-2.2c0-1.9-0.7-2.9-2.1-2.9c-0.6,0-1.1,0.3-1.5,0.8C122,136.1,121.8,136.8,121.8,137.8z"/>
<path d="M129.8,143.8l0.8-1.1c0.8,0.5,1.6,0.8,2.2,0.8c0.6,0,1.1-0.1,1.5-0.3c0.4-0.2,0.5-0.5,0.5-0.8c0-0.6-0.5-1-1.4-1
	c-0.2,0-0.4,0-0.9,0.1c-0.4,0.1-0.7,0.1-1,0.1c-1.1,0-1.7-0.4-1.7-1.3c0-0.3,0.1-0.5,0.4-0.7c0.3-0.2,0.6-0.4,1-0.5
	c-1.1-0.5-1.7-1.4-1.7-2.7c0-0.8,0.3-1.5,0.9-2.1c0.6-0.5,1.3-0.8,2.1-0.8c0.8,0,1.4,0.2,1.8,0.5l0.7-0.8l0.9,0.9l-0.8,0.6
	c0.4,0.5,0.5,1.1,0.5,1.8c0,0.8-0.2,1.5-0.7,2s-1.1,0.8-1.9,0.9l-1.2,0.1c-0.1,0-0.3,0.1-0.5,0.2c-0.2,0.1-0.3,0.2-0.3,0.4
	c0,0.2,0.2,0.3,0.7,0.3c0.2,0,0.5,0,1-0.1c0.4-0.1,0.8-0.1,1-0.1c0.8,0,1.4,0.2,1.8,0.6c0.4,0.4,0.7,0.9,0.7,1.5
	c0,0.7-0.3,1.3-1,1.8c-0.6,0.4-1.5,0.7-2.5,0.7c-0.5,0-1-0.1-1.6-0.3S130.1,144.1,129.8,143.8z M132.7,134.8
	c-0.5,0-0.9,0.2-1.2,0.5c-0.3,0.3-0.5,0.8-0.5,1.2c0,0.5,0.1,1,0.4,1.4c0.3,0.4,0.7,0.5,1.2,0.5c0.5,0,0.9-0.2,1.2-0.5
	c0.3-0.3,0.4-0.8,0.4-1.4c0-0.5-0.2-0.9-0.4-1.2C133.6,135,133.2,134.8,132.7,134.8z"/>
<path d="M141.8,143c-0.2,0.5-0.6,0.9-1.1,1.2c-0.6,0.3-1.2,0.5-1.9,0.5v-1.2c0.6,0,1.1-0.1,1.5-0.4c0.4-0.3,0.6-0.6,0.6-1
	c0-0.4-0.1-0.9-0.2-1.3c-0.2-0.4-0.3-0.9-0.6-1.5l-2.1-5.5h1.4l2.3,6.1l2.1-6.1h1.4L141.8,143z"/>
</svg>